<svg width="800" height="500" xmlns="http://www.w3.org/2000/svg">
  <!-- Background -->
  <rect width="800" height="500" fill="#f0f0f0"/>
  
  <!-- Header -->
  <rect width="800" height="80" fill="#4472c4"/>
  <text x="400" y="50" font-family="Arial, sans-serif" font-size="26" fill="white" text-anchor="middle" font-weight="bold">AGENCE IMMOBILIÈRE</text>
  
  <!-- Search Bar -->
  <rect y="80" width="800" height="60" fill="#5b9bd5"/>
  <rect x="200" y="100" width="400" height="30" fill="white" rx="4"/>
  <text x="400" y="120" font-family="Arial, sans-serif" font-size="12" fill="#999999" text-anchor="middle">Rechercher un bien...</text>
  
  <!-- Property Grid -->
  <rect y="140" width="800" height="360" fill="#ffffff"/>
  
  <!-- Property Cards -->
  <rect x="50" y="160" width="220" height="150" fill="#e7e6e6" stroke="#cccccc" stroke-width="2"/>
  <rect x="60" y="170" width="200" height="80" fill="#d0d0d0"/>
  <text x="160" y="260" font-family="Arial, sans-serif" font-size="14" fill="#333333" text-anchor="middle">Appartement</text>
  <text x="160" y="280" font-family="Arial, sans-serif" font-size="12" fill="#666666" text-anchor="middle">250 000 €</text>
  
  <rect x="290" y="160" width="220" height="150" fill="#e7e6e6" stroke="#cccccc" stroke-width="2"/>
  <rect x="300" y="170" width="200" height="80" fill="#d0d0d0"/>
  <text x="400" y="260" font-family="Arial, sans-serif" font-size="14" fill="#333333" text-anchor="middle">Maison</text>
  <text x="400" y="280" font-family="Arial, sans-serif" font-size="12" fill="#666666" text-anchor="middle">450 000 €</text>
  
  <rect x="530" y="160" width="220" height="150" fill="#e7e6e6" stroke="#cccccc" stroke-width="2"/>
  <rect x="540" y="170" width="200" height="80" fill="#d0d0d0"/>
  <text x="640" y="260" font-family="Arial, sans-serif" font-size="14" fill="#333333" text-anchor="middle">Villa</text>
  <text x="640" y="280" font-family="Arial, sans-serif" font-size="12" fill="#666666" text-anchor="middle">750 000 €</text>
  
  <!-- Second Row -->
  <rect x="50" y="330" width="220" height="150" fill="#e7e6e6" stroke="#cccccc" stroke-width="2"/>
  <rect x="60" y="340" width="200" height="80" fill="#d0d0d0"/>
  <text x="160" y="430" font-family="Arial, sans-serif" font-size="14" fill="#333333" text-anchor="middle">Studio</text>
  <text x="160" y="450" font-family="Arial, sans-serif" font-size="12" fill="#666666" text-anchor="middle">120 000 €</text>
  
  <rect x="290" y="330" width="220" height="150" fill="#e7e6e6" stroke="#cccccc" stroke-width="2"/>
  <rect x="300" y="340" width="200" height="80" fill="#d0d0d0"/>
  <text x="400" y="430" font-family="Arial, sans-serif" font-size="14" fill="#333333" text-anchor="middle">Loft</text>
  <text x="400" y="450" font-family="Arial, sans-serif" font-size="12" fill="#666666" text-anchor="middle">380 000 €</text>
</svg>


