<svg xmlns="http://www.w3.org/2000/svg" viewBox="0 0 400 400">
  <defs>
    <radialGradient id="face-maxime" cx="50%" cy="40%">
      <stop offset="0%" style="stop-color:#FFF3E0;stop-opacity:1" />
      <stop offset="100%" style="stop-color:#D7B899;stop-opacity:1" />
    </radialGradient>
    <linearGradient id="modern-shirt" x1="0%" y1="0%" x2="0%" y2="100%">
      <stop offset="0%" style="stop-color:#1F2937;stop-opacity:1" />
      <stop offset="100%" style="stop-color:#111827;stop-opacity:1" />
    </linearGradient>
  </defs>
  
  <!-- Tech/Modern Background -->
  <rect width="400" height="400" fill="#7C3AED"/>
  <circle cx="200" cy="200" r="180" fill="#A78BFA" opacity="0.3"/>
  <circle cx="280" cy="120" r="60" fill="#88A9C3" opacity="0.1"/>
  
  <!-- Modern Hoodie/Shirt -->
  <ellipse cx="200" cy="380" rx="145" ry="70" fill="url(#modern-shirt)"/>
  <rect x="55" y="290" width="290" height="110" fill="url(#modern-shirt)"/>
  
  <!-- Neon accent on shirt -->
  <rect x="185" y="310" width="30" height="90" fill="#88A9C3" opacity="0.8"/>
  <rect x="188" y="310" width="24" height="90" fill="#000000" opacity="0.3"/>
  
  <!-- Neck -->
  <ellipse cx="200" cy="280" rx="28" ry="38" fill="url(#face-maxime)"/>
  
  <!-- Face -->
  <ellipse cx="200" cy="200" rx="78" ry="92" fill="url(#face-maxime)"/>
  
  <!-- Ears -->
  <ellipse cx="132" cy="205" rx="14" ry="24" fill="#D7B899"/>
  <ellipse cx="268" cy="205" rx="14" ry="24" fill="#D7B899"/>
  
  <!-- Modern Hair (short sides, voluminous top) -->
  <ellipse cx="200" cy="135" rx="82" ry="50" fill="#1A1A1A"/>
  <path d="M 118 165 Q 115 120 200 110 Q 285 120 282 165" fill="#1A1A1A"/>
  <rect x="125" y="140" width="150" height="40" fill="#1A1A1A"/>
  
  <!-- Hair volume/texture on top -->
  <ellipse cx="200" cy="125" rx="60" ry="35" fill="#2D2D2D"/>
  <path d="M 160 130 Q 180 115 200 120 Q 220 115 240 130" fill="#2D2D2D"/>
  
  <!-- Trendy beard -->
  <path d="M 145 230 Q 145 255 160 265 L 160 270 Q 180 275 200 275 Q 220 275 240 270 L 240 265 Q 255 255 255 230" fill="#1A1A1A"/>
  <ellipse cx="200" cy="265" rx="40" ry="15" fill="#1A1A1A"/>
  
  <!-- Mustache -->
  <path d="M 165 238 Q 180 243 200 241 Q 220 243 235 238" fill="#1A1A1A"/>
  <ellipse cx="178" cy="240" rx="15" ry="6" fill="#1A1A1A"/>
  <ellipse cx="222" cy="240" rx="15" ry="6" fill="#1A1A1A"/>
  
  <!-- Modern Glasses (thick frames) -->
  <rect x="148" y="178" width="44" height="32" rx="8" fill="none" stroke="#1A1A1A" stroke-width="4"/>
  <rect x="208" y="178" width="44" height="32" rx="8" fill="none" stroke="#1A1A1A" stroke-width="4"/>
  <line x1="192" y1="194" x2="208" y2="194" stroke="#1A1A1A" stroke-width="4"/>
  
  <!-- Glasses reflection -->
  <ellipse cx="160" cy="185" rx="8" ry="5" fill="#FFFFFF" opacity="0.4"/>
  <ellipse cx="220" cy="185" rx="8" ry="5" fill="#FFFFFF" opacity="0.4"/>
  
  <!-- Eyes behind glasses -->
  <circle cx="170" cy="194" r="8" fill="#2C3E50"/>
  <circle cx="230" cy="194" r="8" fill="#2C3E50"/>
  <circle cx="172" cy="192" r="3" fill="#FFFFFF"/>
  <circle cx="232" cy="192" r="3" fill="#FFFFFF"/>
  
  <!-- Eyebrows (thick, masculine) -->
  <path d="M 150 170 Q 168 165 186 170" stroke="#1A1A1A" stroke-width="5" fill="none" stroke-linecap="round"/>
  <path d="M 214 170 Q 232 165 250 170" stroke="#1A1A1A" stroke-width="5" fill="none" stroke-linecap="round"/>
  
  <!-- Nose -->
  <path d="M 200 205 L 195 222 L 205 222 Z" fill="#C8A882" opacity="0.3"/>
  <ellipse cx="193" cy="224" rx="3.5" ry="4.5" fill="#A68968" opacity="0.5"/>
  <ellipse cx="207" cy="224" rx="3.5" ry="4.5" fill="#A68968" opacity="0.5"/>
  
  <!-- Smile (subtle, confident) -->
  <path d="M 180 248 Q 200 252 220 248" stroke="#1A1A1A" stroke-width="2.5" fill="none" stroke-linecap="round" opacity="0.6"/>
  
  <!-- Face shadows for masculine features -->
  <ellipse cx="140" cy="215" rx="14" ry="32" fill="#000000" opacity="0.06"/>
  <ellipse cx="260" cy="215" rx="14" ry="32" fill="#000000" opacity="0.06"/>
  <rect x="185" y="220" width="30" height="15" fill="#000000" opacity="0.03"/>
</svg>
