<svg xmlns="http://www.w3.org/2000/svg" viewBox="0 0 400 400">
  <defs>
    <radialGradient id="face-sophie" cx="50%" cy="40%">
      <stop offset="0%" style="stop-color:#FFF9F3;stop-opacity:1" />
      <stop offset="100%" style="stop-color:#E5C8B0;stop-opacity:1" />
    </radialGradient>
    <linearGradient id="blazer-sophie" x1="0%" y1="0%" x2="0%" y2="100%">
      <stop offset="0%" style="stop-color:#1E40AF;stop-opacity:1" />
      <stop offset="100%" style="stop-color:#1E3A8A;stop-opacity:1" />
    </linearGradient>
  </defs>
  
  <!-- Professional Background -->
  <rect width="400" height="400" fill="#0EA5E9"/>
  <circle cx="200" cy="200" r="180" fill="#38BDF8" opacity="0.3"/>
  
  <!-- Blazer -->
  <ellipse cx="200" cy="380" rx="150" ry="70" fill="url(#blazer-sophie)"/>
  <rect x="50" y="300" width="300" height="100" fill="url(#blazer-sophie)"/>
  <rect x="175" y="300" width="50" height="100" fill="#FFFFFF"/>
  
  <!-- Scarf/Necklace -->
  <ellipse cx="200" cy="290" rx="40" ry="8" fill="#F59E0B"/>
  
  <!-- Neck -->
  <ellipse cx="200" cy="275" rx="28" ry="40" fill="url(#face-sophie)"/>
  
  <!-- Face -->
  <ellipse cx="200" cy="195" rx="78" ry="95" fill="url(#face-sophie)"/>
  
  <!-- Ears -->
  <ellipse cx="130" cy="200" rx="13" ry="24" fill="#E5C8B0"/>
  <ellipse cx="270" cy="200" rx="13" ry="24" fill="#E5C8B0"/>
  
  <!-- Earrings (professional) -->
  <circle cx="130" cy="215" r="6" fill="#FFD700" stroke="#DAA520" stroke-width="1.5"/>
  <circle cx="270" cy="215" r="6" fill="#FFD700" stroke="#DAA520" stroke-width="1.5"/>
  
  <!-- Hair (professional bob) -->
  <ellipse cx="200" cy="135" rx="85" ry="55" fill="#4A2511"/>
  <path d="M 115 165 Q 110 120 200 110 Q 290 120 285 165" fill="#4A2511"/>
  <rect x="120" y="135" width="160" height="45" fill="#4A2511"/>
  
  <!-- Hair shine -->
  <ellipse cx="160" cy="130" rx="20" ry="8" fill="#6B3410" opacity="0.5"/>
  
  <!-- Forehead highlight -->
  <ellipse cx="200" cy="160" rx="55" ry="18" fill="#FFFFFF" opacity="0.2"/>
  
  <!-- Eyes (confident, professional) -->
  <ellipse cx="168" cy="190" rx="14" ry="16" fill="#FFFFFF"/>
  <ellipse cx="232" cy="190" rx="14" ry="16" fill="#FFFFFF"/>
  <circle cx="170" cy="193" r="9" fill="#2C5F2D"/>
  <circle cx="234" cy="193" r="9" fill="#2C5F2D"/>
  <circle cx="172" cy="190" r="3.5" fill="#FFFFFF"/>
  <circle cx="236" cy="190" r="3.5" fill="#FFFFFF"/>
  
  <!-- Eyeliner (subtle) -->
  <path d="M 156 185 L 180 186" stroke="#4A2511" stroke-width="1.5" fill="none" stroke-linecap="round"/>
  <path d="M 220 186 L 244 185" stroke="#4A2511" stroke-width="1.5" fill="none" stroke-linecap="round"/>
  
  <!-- Eyebrows (defined, professional) -->
  <path d="M 150 173 Q 168 168 185 173" stroke="#4A2511" stroke-width="4" fill="none" stroke-linecap="round"/>
  <path d="M 215 173 Q 232 168 250 173" stroke="#4A2511" stroke-width="4" fill="none" stroke-linecap="round"/>
  
  <!-- Nose -->
  <path d="M 200 200 L 196 220 L 204 220 Z" fill="#D4A884" opacity="0.3"/>
  <ellipse cx="194" cy="222" rx="3" ry="4" fill="#C89968" opacity="0.5"/>
  <ellipse cx="206" cy="222" rx="3" ry="4" fill="#C89968" opacity="0.5"/>
  
  <!-- Lips (professional, subtle) -->
  <path d="M 178 245 Q 200 251 222 245" stroke="#B8696D" stroke-width="3" fill="none" stroke-linecap="round"/>
  <path d="M 178 245 Q 200 255 222 245 Q 222 249 200 252 Q 178 249 178 245 Z" fill="#D98994"/>
  <path d="M 178 245 Q 200 249 222 245" fill="#F0B4BE" opacity="0.4"/>
  
  <!-- Cheek blush (subtle) -->
  <ellipse cx="145" cy="215" rx="18" ry="12" fill="#F0B4BE" opacity="0.2"/>
  <ellipse cx="255" cy="215" rx="18" ry="12" fill="#F0B4BE" opacity="0.2"/>
  
  <!-- Face contour -->
  <ellipse cx="135" cy="220" rx="11" ry="36" fill="#000000" opacity="0.04"/>
  <ellipse cx="265" cy="220" rx="11" ry="36" fill="#000000" opacity="0.04"/>
</svg>



