<svg width="1200" height="800" viewBox="0 0 1200 800" xmlns="http://www.w3.org/2000/svg">
    <rect width="100%" height="100%" fill="#0A2E4D"/><rect x="0" y="0" width="100%" height="40" fill="#000000" opacity="0.1"/>
            <circle cx="20" cy="20" r="6" fill="#FF5F56"/>
            <circle cx="40" cy="20" r="6" fill="#FFBD2E"/>
            <circle cx="60" cy="20" r="6" fill="#27C93F"/>
            <rect x="80" y="8" width="1100" height="24" rx="4" fill="#FFFFFF" opacity="0.1"/><text x="600" y="160" font-family="Arial, sans-serif" font-weight="bold" font-size="64" fill="#F7F9FB" text-anchor="middle">AGENCE IMMOBILIÈRE</text><rect x="500" y="190" width="200" height="4" fill="#FF6B35"/><rect x="40" y="310" width="360" height="150" fill="#FF6B35" opacity="0.1"/>
              <rect x="40" y="420" width="360" height="40" fill="#0A2E4D" opacity="0.8"/>
              <text x="60" y="445" font-family="Arial" font-size="14" fill="#F7F9FB">Propriété 1</text><rect x="420" y="310" width="360" height="150" fill="#FF6B35" opacity="0.1"/>
              <rect x="420" y="420" width="360" height="40" fill="#0A2E4D" opacity="0.8"/>
              <text x="440" y="445" font-family="Arial" font-size="14" fill="#F7F9FB">Propriété 2</text><rect x="800" y="310" width="360" height="150" fill="#FF6B35" opacity="0.1"/>
              <rect x="800" y="420" width="360" height="40" fill="#0A2E4D" opacity="0.8"/>
              <text x="820" y="445" font-family="Arial" font-size="14" fill="#F7F9FB">Propriété 3</text><rect x="0" y="740" width="100%" height="60" fill="#F7F9FB" opacity="0.05"/><text x="20" y="780" font-family="monospace" font-size="12" fill="#F7F9FB" opacity="0.5">THUMB</text></svg>